<svg xmlns="http://www.w3.org/2000/svg" viewBox="0 0 500 500"><g id="freepik--background-complete--inject-65"><path d="M118,460.24c20.4-7.5,30-28.66,34.48-48.76.74-3.36,2-6.77,1.16-10.1s-4.08-6.28-7.46-5.65c-2.8.52-4.63,3.11-6.65,5.13a20.28,20.28,0,0,1-9.82,5.42c-2.43.55-5.26.54-7.08-1.16-2.5-2.33-1.82-6.38-.95-9.69q2.44-9.23,4.88-18.46c.87-3.3,1.75-6.68,1.51-10.09s-1.78-6.91-4.75-8.61-7.37-.9-8.88,2.17a32.5,32.5,0,0,0-1.15,4.09c-.45,1.35-1.49,2.7-2.91,2.75s-2.53-1.24-3.29-2.47c-2.6-4.23-3.84-9.13-4.93-14s-2.1-9.77-4.3-14.22-5.8-8.45-10.53-9.95-10.6.11-13,4.45-.88,9.79,1.15,14.33a76.69,76.69,0,0,0,11.81,18.66,6.32,6.32,0,0,1,1.89,3.43c.16,2.39-2.52,4-4.91,4.2-2.71.18-5.36-.77-8-1.14s-5.82,0-7.43,2.23c-2.25,3-.29,7.31,1.93,10.35a66.26,66.26,0,0,0,16.19,15.68c2.24,1.52,4.63,3,6.18,5.19s2,5.5.18,7.52-5.08,2-7.54.84-4.41-3.11-6.64-4.66c-4.17-2.9-10.19-4.11-14.16-.94-2.6,2.09-3.7,5.64-3.51,9a25,25,0,0,0,3,9.48A66.53,66.53,0,0,0,87,451.41c9.75,6.4,19.39,9.93,31,8.83" style="fill:#ebebeb"></path><path d="M116.5,460.29c-.39-10.82-2.39-36.52-4.3-48.85q-.74-4.62-1.45-9.12c-.48-3-1-6-1.6-8.83a152.78,152.78,0,0,0-4.69-16.31c-1.74-5.12-3.58-9.92-5.34-14.39s-3.48-8.61-5.22-12.31a121.91,121.91,0,0,0-9.48-16.88c-1.27-1.9-2.3-3.34-3-4.31l-.82-1.1-.29-.37a3.74,3.74,0,0,0,.25.4l.77,1.13c.69,1,1.69,2.45,2.94,4.36a128.26,128.26,0,0,1,9.31,16.92c1.71,3.71,3.41,7.84,5.16,12.32s3.56,9.27,5.28,14.38a153.45,153.45,0,0,1,4.64,16.27c.64,2.86,1.12,5.8,1.6,8.8s1,6,1.44,9.12c1.91,12.32,3.92,38,4.33,48.79" style="fill:#e0e0e0"></path><path d="M109,393.41a8.12,8.12,0,0,0,.67-1.34c.41-.87,1-2.15,1.61-3.74,1.31-3.17,3-7.62,4.8-12.52s3.57-9.32,5-12.46c.68-1.57,1.25-2.84,1.66-3.7a7,7,0,0,0,.57-1.38,7.68,7.68,0,0,0-.75,1.29c-.47.84-1.09,2.09-1.81,3.64-1.47,3.11-3.27,7.51-5.1,12.43s-3.44,9.26-4.66,12.57c-.59,1.53-1.08,2.81-1.45,3.79A8.07,8.07,0,0,0,109,393.41Z" style="fill:#e0e0e0"></path><path d="M68,374.4a1.68,1.68,0,0,0,.42.18l1.25.44c1.09.37,2.66.91,4.57,1.64,3.85,1.42,9.09,3.58,14.76,6.21s10.69,5.27,14.27,7.27c1.8,1,3.23,1.83,4.22,2.41l1.14.66a2.35,2.35,0,0,0,.42.2s-.11-.12-.36-.29l-1.1-.74c-1-.63-2.36-1.52-4.14-2.55-3.54-2.09-8.55-4.77-14.24-7.42s-11-4.76-14.84-6.1c-1.94-.68-3.53-1.17-4.64-1.48l-1.28-.35A1.4,1.4,0,0,0,68,374.4Z" style="fill:#e0e0e0"></path><path d="M115.65,445.49a3.92,3.92,0,0,0,.41-.45l1.13-1.36c1-1.18,2.34-2.92,4-5.09,3.32-4.35,7.73-10.49,12.51-17.33s9.13-13,12.37-17.4l3.87-5.19,1.05-1.42a2.27,2.27,0,0,0,.33-.51,3.35,3.35,0,0,0-.42.45l-1.12,1.35c-1,1.18-2.34,2.93-4,5.1-3.32,4.35-7.73,10.49-12.51,17.33s-9.13,13-12.37,17.4L117,443.56c-.43.58-.77,1.05-1,1.41A2.43,2.43,0,0,0,115.65,445.49Z" style="fill:#e0e0e0"></path><path d="M63.06,412.57a2.86,2.86,0,0,0,.51.37l1.53,1,5.64,3.52c4.76,3,11.28,7.17,18.47,11.82s13.75,8.8,18.56,11.7c2.41,1.45,4.36,2.6,5.73,3.38l1.58.88a3,3,0,0,0,.57.28,3.3,3.3,0,0,0-.52-.37l-1.53-1L108,440.64c-4.75-3-11.27-7.18-18.47-11.83S75.74,420,70.93,417.12c-2.4-1.46-4.36-2.61-5.72-3.39l-1.58-.88A3.44,3.44,0,0,0,63.06,412.57Z" style="fill:#e0e0e0"></path><path d="M81.5,264.66h82.89s-7.33-13.34-28.67-11.39c-20.38,1.85-21.41-6.57-31.77-7.6S85,252.57,81.5,264.66Z" style="fill:#ebebeb"></path><path d="M365.18,118.05h79.39s-7-12.78-27.45-10.92c-19.52,1.78-20.51-6.28-30.43-7.28S368.49,106.47,365.18,118.05Z" style="fill:#ebebeb"></path><path d="M404.88,160.9h51.93s-4.59-8.36-18-7.14c-12.77,1.16-13.42-4.11-19.91-4.76S407,153.32,404.88,160.9Z" style="fill:#e0e0e0"></path><path d="M72.37,91.67H124.3s-4.59-8.36-18-7.14c-12.77,1.16-13.42-4.12-19.91-4.77S74.53,84.09,72.37,91.67Z" style="fill:#f5f5f5"></path><path d="M61,293.34h51.93s-4.59-8.36-18-7.14c-12.76,1.16-13.41-4.11-19.9-4.76S63.12,285.76,61,293.34Z" style="fill:#e0e0e0"></path></g><g id="freepik--Floor--inject-65"><path d="M463.84,461.05c0,.14-95.74.26-213.83.26s-213.85-.12-213.85-.26,95.72-.26,213.85-.26S463.84,460.91,463.84,461.05Z" style="fill:#263238"></path></g><g id="freepik--Plants--inject-65"><path d="M406.81,440.09c-.76-3,1.23-6,3.46-8.22s4.89-4.12,6.06-7c1.9-4.68-.58-10.77,2.63-14.66,1.89-2.29,5.26-3,6.94-5.49a12.54,12.54,0,0,0,1.52-4.38,44.68,44.68,0,0,1,11.22-20.7,38.68,38.68,0,0,1-4.47,20c-1.31,2.46-2.9,4.84-3.35,7.59-.72,4.45,1.74,9.05.62,13.42-1.28,5-6.92,8.32-7.21,13.47-.25,4.35,3.52,8.2,3.21,12.55a11.82,11.82,0,0,1-2,5.15c-3.4,5.58-8.37,9.41-15.87,9.24l-9.18.27Z" style="fill:#3E9E48"></path><g style="opacity:0.30000000000000004"><path d="M406.81,440.09c-.76-3,1.23-6,3.46-8.22s4.89-4.12,6.06-7c1.9-4.68-.58-10.77,2.63-14.66,1.89-2.29,5.26-3,6.94-5.49a12.54,12.54,0,0,0,1.52-4.38,44.68,44.68,0,0,1,11.22-20.7,38.68,38.68,0,0,1-4.47,20c-1.31,2.46-2.9,4.84-3.35,7.59-.72,4.45,1.74,9.05.62,13.42-1.28,5-6.92,8.32-7.21,13.47-.25,4.35,3.52,8.2,3.21,12.55a11.82,11.82,0,0,1-2,5.15c-3.4,5.58-8.37,9.41-15.87,9.24l-9.18.27Z"></path></g><path d="M398.56,461.54a7.23,7.23,0,0,1-2.52-.07,15.45,15.45,0,0,1-3-.77,12.65,12.65,0,0,1-3.68-2,5,5,0,0,1-1.5-2,9.08,9.08,0,0,1-.42-2.74,25.71,25.71,0,0,0-.2-3,8.34,8.34,0,0,0-1.1-3c-1.08-1.9-2.86-3.72-3.43-6.3s-.15-5.29.3-8,.87-5.75-.17-8.63-3-5.48-4-8.72-.49-6.8-.68-10.27a13.74,13.74,0,0,0-1.17-5.1c-.74-1.63-1.76-3.17-2.55-4.89-1.61-3.47-1.88-7.39-2.3-11.23q-.31-2.91-.63-5.88a28.69,28.69,0,0,0-1-5.88,51.31,51.31,0,0,0-2.16-5.69,19.08,19.08,0,0,1-1.05-3,30.88,30.88,0,0,1-.28-3.16,37.56,37.56,0,0,1,.28-6.35c.26-2.12.66-4.22.9-6.34,0-.13,0-.25,0-.37l.05-.42.38.19a14.27,14.27,0,0,1,4.92,4.2,22.66,22.66,0,0,1,3,5.61c1.51,4,2,8.1,2.79,12.05s1.71,7.84,3.71,11.13c1,1.64,2.21,3.14,3.27,4.74a13.06,13.06,0,0,1,2.25,5.25c.52,3.88-1.64,7.28-1.22,10.73a11.86,11.86,0,0,0,1.65,4.77c.83,1.48,1.8,2.84,2.72,4.21a27,27,0,0,1,2.44,4.26,13.47,13.47,0,0,1,1.11,4.61c.2,3.09-.25,6,0,8.81a20.34,20.34,0,0,0,2.22,7.56c1.1,2.26,2.32,4.31,3.35,6.3a31.92,31.92,0,0,1,1.37,2.93,14.19,14.19,0,0,1,.79,2.91,18.45,18.45,0,0,1,0,5.24,13.1,13.1,0,0,1-2.67,6.67,5.91,5.91,0,0,1-.74.8,3.15,3.15,0,0,1-.61.51c-.34.25-.53.37-.53.37a12.16,12.16,0,0,0,1.79-1.75,13.25,13.25,0,0,0,2.53-6.63,18,18,0,0,0-.08-5.16,14.58,14.58,0,0,0-.8-2.84c-.39-1-.87-1.92-1.38-2.9-1-2-2.27-4-3.4-6.29a20.68,20.68,0,0,1-2.3-7.69c-.22-2.84.22-5.78,0-8.81a12.84,12.84,0,0,0-1.08-4.46,27,27,0,0,0-2.41-4.16c-.92-1.37-1.91-2.74-2.76-4.24a12.32,12.32,0,0,1-1.72-5c-.42-3.67,1.72-7.09,1.19-10.71a12.52,12.52,0,0,0-2.17-5c-1-1.58-2.26-3.08-3.29-4.76a33.37,33.37,0,0,1-3.79-11.31c-.76-4-1.29-8.07-2.78-12a21.92,21.92,0,0,0-2.92-5.46,13.6,13.6,0,0,0-4.72-4l.43-.23c0,.11,0,.24,0,.37-.24,2.14-.63,4.25-.89,6.34a36.51,36.51,0,0,0-.28,6.26,30,30,0,0,0,.26,3.06,18.2,18.2,0,0,0,1,2.87,54.89,54.89,0,0,1,2.18,5.76,29,29,0,0,1,1,6c.21,2,.41,3.94.62,5.88.41,3.86.68,7.72,2.23,11.07.77,1.66,1.79,3.21,2.54,4.89a14.09,14.09,0,0,1,1.2,5.29c.18,3.55-.3,7,.64,10.16s2.93,5.74,3.92,8.71.6,6.1.15,8.85-.92,5.45-.34,7.89,2.25,4.27,3.34,6.23a8.38,8.38,0,0,1,1.12,3.08,24.22,24.22,0,0,1,.18,3,9.13,9.13,0,0,0,.38,2.68,5,5,0,0,0,1.41,1.94,12.65,12.65,0,0,0,3.59,2.05,15.55,15.55,0,0,0,2.93.81,11.61,11.61,0,0,0,1.87.19C398.34,461.53,398.56,461.54,398.56,461.54Z" style="fill:#263238"></path><path d="M370.16,353.18a1.09,1.09,0,0,1,.09.28c.05.22.12.49.2.83.17.72.38,1.81.72,3.18s1.18,2.91,1.88,4.81a66.69,66.69,0,0,1,2.14,6.52c.69,2.46,1.3,5.18,1.93,8.1a33.76,33.76,0,0,0,2.89,9c.74,1.5,1.58,3,2.25,4.67a21.69,21.69,0,0,1,1.29,5.28A106.11,106.11,0,0,0,385.46,407c1.8,7.54,3.52,14.71,5.08,21.25s3,12.38,4.25,17.33,2.14,8.89,2.82,11.7c.31,1.35.56,2.41.74,3.19.07.33.13.61.17.83a.92.92,0,0,1,0,.29,1.33,1.33,0,0,1-.1-.28c-.06-.21-.13-.48-.23-.81-.2-.77-.49-1.83-.84-3.16-.72-2.8-1.75-6.77-3-11.66s-2.74-10.8-4.38-17.3-3.31-13.72-5.12-21.25A105.29,105.29,0,0,1,383,395.91a21.09,21.09,0,0,0-1.25-5.15c-.64-1.62-1.46-3.12-2.21-4.63a34.38,34.38,0,0,1-2.88-9.13c-.61-2.92-1.19-5.64-1.85-8.09s-1.35-4.63-2.05-6.52-1.46-3.45-1.79-4.86-.48-2.48-.62-3.22c-.06-.34-.1-.62-.14-.84A1.06,1.06,0,0,1,370.16,353.18Z" style="fill:#263238"></path><path d="M396.94,461.56c-6-3.6-7.64-14.44-5.1-20.94s7-12.42,7.67-19.36c.55-5.34-1.17-10.83.11-16,1.71-7,8.62-12.45,8.58-19.69,0-4.06-2.31-7.9-2.1-11.95.25-5,4.1-8.91,6.49-13.28,3.66-6.69,3.94-14.62,5.22-22.14s4.2-15.56,10.89-19.22c.95,6.39,2.6,10.78,2,19.43-.21,3.11-3.86,9-4.39,15.84-.31,4.07-.54,8.15-.81,12.22s-.55,8-2,11.71c-1.1,2.83-2.87,5.4-3.69,8.33-1.56,5.52.41,11.51-.85,17.1-1.07,4.73-4.37,8.79-5.07,13.59-1,6.75,3.35,13.79,1.08,20.22-1.13,3.19-3.78,5.74-4.54,9-.59,2.56,0,5.28-.52,7.84-.86,4.14-8.79,7.59-13,7.31" style="fill:#3E9E48"></path><path d="M427,325.27a1.64,1.64,0,0,1,0,.36c0,.27-.08.61-.14,1.05-.14.92-.31,2.28-.63,4s-1.26,3.74-2,6.13S422.65,342,422,345s-1.29,6.48-1.91,10.14-1.3,7.66-3.14,11.46c-.86,1.92-1.81,3.83-2.53,5.87a25.89,25.89,0,0,0-1.3,6.47,133,133,0,0,1-1.84,14l-5.33,26.66c-1.73,8.16-3.28,15.52-4.59,21.71s-2.4,11.14-3.15,14.63c-.37,1.69-.67,3-.88,4l-.24,1a1.63,1.63,0,0,1-.11.35,1.89,1.89,0,0,1,.05-.36c0-.27.11-.61.18-1,.19-.95.45-2.29.78-4,.71-3.5,1.72-8.5,3-14.66s2.78-13.57,4.46-21.74,3.41-17.2,5.29-26.65a134.73,134.73,0,0,0,1.84-13.92,26.5,26.5,0,0,1,1.35-6.61c.74-2.08,1.71-4,2.56-5.9,1.83-3.75,2.49-7.67,3.15-11.32s1.26-7.07,2-10.15a81.41,81.41,0,0,1,2.34-8.21c.77-2.4,1.72-4.36,2.09-6.08s.55-3.08.73-4c.08-.43.15-.77.2-1A1.81,1.81,0,0,1,427,325.27Z" style="fill:#263238"></path><path d="M116.44,420.13c1.93,2.7,5.61,1.76,7.3.09s2.4-4.08,3-6.37c1.45-5.25,2.91-10.75,1.74-16.06a8.82,8.82,0,0,0-2.09-4.34A4.65,4.65,0,0,0,122,392c-1.86.51-3,2.35-3.82,4.09a38.41,38.41,0,0,0-3.62,16.44c0,2.64.36,5.41,1.87,7.58" style="fill:#3E9E48"></path><path d="M123.69,433.8a16.46,16.46,0,0,1,10.2-1.34,8.53,8.53,0,0,1,5.07,2.2c1.27,1.38,1.53,3.83.1,5a4.87,4.87,0,0,1-3.18.84c-2.7,0-5.7-.46-7.84,1.19-1.22.94-2,2.49-3.49,3a3.48,3.48,0,0,1-3.84-1.67,5.92,5.92,0,0,1-.48-4.38A6.71,6.71,0,0,1,123.69,433.8Z" style="fill:#3E9E48"></path><path d="M111.26,424.07a9.84,9.84,0,0,0,1.45-9.09,17.54,17.54,0,0,0-5.45-7.76,29,29,0,0,0-9.69-5.59,10.29,10.29,0,0,0-4.34-.69,4.56,4.56,0,0,0-3.62,2.23c-1,1.95,0,4.28,1.07,6.19a75,75,0,0,0,6.42,9.57c1.92,2.43,4.12,4.82,7,5.89s5.9.92,7.42-1.1" style="fill:#3E9E48"></path><path d="M116.71,461.05a6.38,6.38,0,0,0,.16-1.23c.08-.9.17-2,.29-3.37a49.25,49.25,0,0,1,.71-4.94,38.75,38.75,0,0,1,1.74-5.84,21.1,21.1,0,0,1,2.92-5.3,11.05,11.05,0,0,1,3.73-3.16,10.36,10.36,0,0,1,3.16-1,5.61,5.61,0,0,0,1.22-.19,7.06,7.06,0,0,0-1.25,0,9.74,9.74,0,0,0-3.29.9,11.15,11.15,0,0,0-3.94,3.19,21.37,21.37,0,0,0-3,5.4,36.38,36.38,0,0,0-1.72,5.94,43.23,43.23,0,0,0-.61,5c-.09,1.43-.12,2.59-.13,3.39A5.22,5.22,0,0,0,116.71,461.05Z" style="fill:#263238"></path><path d="M116.91,458.46a2.12,2.12,0,0,0,0-.57c0-.43,0-1,0-1.64,0-1.42,0-3.47,0-6,.07-5.07.44-12.08,1.21-19.78S120,415.81,121,410.83c.23-1.24.46-2.37.68-3.35s.39-1.84.56-2.52.27-1.18.37-1.6a2,2,0,0,0,.09-.56,2.88,2.88,0,0,0-.19.54l-.46,1.57c-.2.68-.41,1.52-.65,2.51s-.5,2.1-.76,3.34a184.2,184.2,0,0,0-3,19.65,198.14,198.14,0,0,0-1.07,19.83c0,2.54.06,4.6.14,6,0,.66.09,1.2.12,1.63A3.14,3.14,0,0,0,116.91,458.46Z" style="fill:#263238"></path><path d="M116.82,444.92a12.37,12.37,0,0,0,0-1.71,45.8,45.8,0,0,0-.57-4.63,63.34,63.34,0,0,0-1.57-6.73,59.25,59.25,0,0,0-2.9-8,42.56,42.56,0,0,0-8.4-12.82,23.18,23.18,0,0,0-2-1.79c-.3-.25-.57-.5-.84-.69l-.76-.52a10.05,10.05,0,0,0-1.45-.9,48.05,48.05,0,0,1,4.76,4.16,44.7,44.7,0,0,1,8.2,12.77A64.06,64.06,0,0,1,114.2,432c.76,2.47,1.28,4.74,1.67,6.66s.59,3.49.72,4.57A9.9,9.9,0,0,0,116.82,444.92Z" style="fill:#263238"></path></g></svg>
